PathFileType	4	(X/Y/Z)	TRC_standard
DataRate	CameraRate	NumFrames	NumMarkers	Units	OrigDataRate	OrigDataStartFrame	OrigNumFrames
100.00	100.00	       8	33	mm	100.00	1397	       2234
Frame#	Time	T10			C7			CLAV			RACR1			LACR1			RPSI			LPSI			RASI			LASI			LTH2			LTH1			RTH2			RTH3			RTH1			RLFC			RTB1			RTB3			RTB2			LLFC			LTB1			LTB3			LTB2			LLMAL			LMMAL			RLMAL			RCAL			RMT5			RMT1			LMT5			LMT1			LTH3			LCAL			LToe			
		X1	Y1	Z1	X2	Y2	Z2	X3	Y3	Z3	X4	Y4	Z4	X5	Y5	Z5	X6	Y6	Z6	X7	Y7	Z7	X8	Y8	Z8	X9	Y9	Z9	X10	Y10	Z10	X11	Y11	Z11	X12	Y12	Z12	X13	Y13	Z13	X14	Y14	Z14	X15	Y15	Z15	X16	Y16	Z16	X17	Y17	Z17	X18	Y18	Z18	X19	Y19	Z19	X20	Y20	Z20	X21	Y21	Z21	X22	Y22	Z22	X23	Y23	Z23	X24	Y24	Z24	X25	Y25	Z25	X26	Y26	Z26	X27	Y27	Z27	X28	Y28	Z28	X29	Y29	Z29	X30	Y30	Z30	X31	Y31	Z31	X32	Y32	Z32	X33	Y33	Z33	
1397	13.960000	703.502380	1242.059204	-494.627472	702.560181	1498.225708	-362.756470	719.063721	1338.239502	-273.380951	547.737305	1442.712280	-330.581665	883.957031	1441.367554	-365.457794	654.096802	1030.387329	-568.578308	742.261780	1029.139282	-567.939941	573.337585	987.479492	-337.024292	826.928528	991.007446	-334.110931	876.614380	737.667725	-296.887177	856.266724	877.976074	-329.750763	582.306152	700.765381	-355.943237	533.031799	770.850464	-378.868622	595.082336	817.027100	-330.070160	579.126404	495.111511	-460.773285	632.906250	382.578125	-445.937195	608.495239	307.713501	-479.697357	637.799500	257.477600	-485.449799	867.245667	526.030823	-290.899994	825.630249	412.658661	-260.833862	855.197632	354.500122	-298.539215	818.546326	300.213318	-299.271057	847.268005	120.370117	-400.547302	799.096680	81.681328	-458.484833	623.291321	83.005524	-576.970093	656.668030	47.680099	-648.773376	623.134949	44.725433	-474.621368	701.564514	47.072887	-447.615906	865.653687	66.032143	-346.212036	803.969482	67.674202	-263.915955	907.059814	796.155334	-357.921143	0.000000	0.000000	0.000000	0.000000	0.000000	0.000000	
1398	13.970000	703.734497	1241.599487	-495.229736	702.977295	1497.742065	-363.335541	719.694275	1337.767578	-273.971710	548.218811	1442.210571	-330.787018	884.386414	1440.896729	-366.627563	654.832642	1030.034668	-569.283325	742.979675	1028.768066	-568.591553	573.740967	986.772827	-337.837372	827.367981	990.637024	-334.654114	876.983948	738.479065	-297.314697	856.685242	877.961304	-330.013153	582.893982	699.907227	-358.843475	533.670349	770.129150	-381.090302	595.644714	815.909851	-331.884064	579.325745	494.838165	-465.718109	633.069946	382.172089	-451.801788	608.583191	307.541229	-486.094818	637.852905	257.330536	-492.222687	867.047546	526.620605	-288.631866	825.130981	414.091675	-254.840622	855.260376	354.508270	-289.723846	818.705811	300.192322	-288.465607	848.567993	116.094200	-381.509735	801.067017	74.823730	-438.155640	623.107361	83.665176	-584.978088	656.303101	48.851555	-657.121094	623.018127	44.753101	-483.093567	701.383301	47.107861	-456.066864	866.210022	66.567009	-323.957733	804.303284	69.224319	-242.995743	907.533813	796.047913	-357.620483	0.000000	0.000000	0.000000	0.000000	0.000000	0.000000	
1399	13.980000	704.040039	1241.126465	-495.795837	703.444092	1497.250000	-363.889008	720.353943	1337.285767	-274.525116	548.743042	1441.693359	-330.983093	884.859558	1440.420166	-367.721466	655.611755	1029.676147	-569.940674	743.739136	1028.387939	-569.190125	574.206970	986.069763	-338.597961	827.872192	990.246643	-335.150726	877.692505	739.532654	-298.386444	857.163696	877.853210	-330.269867	583.544922	699.079102	-361.702728	534.366699	769.427490	-383.260132	596.266479	814.811462	-333.649536	579.575928	494.605133	-470.553589	633.279907	381.807465	-457.589630	608.704712	307.420593	-492.426483	637.934692	257.240845	-498.939240	866.882690	527.056030	-286.806274	824.630920	415.426575	-249.395340	855.299988	354.523956	-281.466339	818.825317	300.253052	-278.264160	849.753174	112.263283	-363.054871	802.908875	68.558174	-418.324951	622.912598	84.420364	-592.965576	655.926575	50.153728	-665.458923	622.908020	44.804733	-491.546387	701.206543	47.144436	-464.520782	866.689697	67.438324	-300.267426	804.411133	71.106750	-222.923462	907.855835	795.502563	-357.137360	0.000000	0.000000	0.000000	0.000000	0.000000	0.000000	
1400	13.990000	704.419312	1240.643311	-496.318604	703.963013	1496.754517	-364.412811	721.046021	1336.800293	-275.035980	549.312439	1441.167236	-331.166229	885.379822	1439.942139	-368.735504	656.435181	1029.313721	-570.539856	744.540833	1028.001343	-569.725830	574.733521	985.376282	-339.294830	828.439514	989.841614	-335.590881	878.776367	740.897766	-300.127869	857.701294	877.658569	-330.506378	584.254822	698.281799	-364.509949	535.118713	768.748474	-385.367340	596.943481	813.734802	-335.352936	579.878662	494.415070	-475.270874	633.536682	381.485962	-463.293518	608.860901	307.355255	-498.687469	638.046875	257.212219	-505.596405	866.756165	527.336426	-285.397736	824.134216	416.649414	-244.503738	855.316772	354.537903	-273.798492	818.901306	300.380798	-268.721649	850.811951	108.873871	-345.330963	804.605469	62.896034	-399.170410	622.709167	85.276352	-600.932312	655.541382	51.591736	-673.786804	622.804077	44.881390	-499.976837	701.033936	47.181995	-472.975616	867.078003	68.593376	-275.599640	804.288147	73.269829	-203.834488	907.960938	794.417664	-356.349884	0.000000	0.000000	0.000000	0.000000	0.000000	0.000000	
1401	14.000000	704.872253	1240.152954	-496.791260	704.536560	1496.260864	-364.903351	721.773926	1336.317505	-275.499573	549.929504	1440.638672	-331.333191	885.950745	1439.466553	-369.666565	657.303833	1028.949463	-571.070435	745.385620	1027.610840	-570.189087	575.318848	984.697937	-339.916962	829.068176	989.427429	-335.964905	880.258118	742.629089	-302.542542	858.296631	877.385010	-330.708191	585.019409	697.515869	-367.253113	535.924316	768.094604	-387.400513	597.671570	812.682556	-336.980438	580.235413	494.270111	-479.861359	633.839905	381.208649	-468.905762	609.052246	307.348602	-504.872742	638.190796	257.247986	-512.191040	866.671875	527.463257	-284.377930	823.644836	417.747070	-240.167557	855.311707	354.539398	-266.748138	818.931519	300.557190	-259.888275	851.736023	105.910614	-328.485016	806.143494	57.835327	-380.872070	622.499329	86.237885	-608.877686	655.150757	53.170094	-682.104492	622.705322	44.983593	-508.382477	700.864929	47.219723	-481.429138	867.356323	69.966309	-250.618851	803.936768	75.647278	-185.863037	907.787109	792.698608	-355.140564	0.000000	0.000000	0.000000	0.000000	0.000000	0.000000	
1402	14.010000	705.398743	1239.658569	-497.207367	705.167236	1495.773804	-365.357544	722.541016	1335.843872	-275.911530	550.596619	1440.114014	-331.481201	886.575623	1438.997314	-370.512299	658.218506	1028.585449	-571.522095	746.274292	1027.219116	-570.570618	575.961243	984.039673	-340.453796	829.756348	989.009399	-336.263519	882.143860	744.760193	-305.607513	858.947998	877.040833	-330.861145	585.834595	696.781799	-369.919189	536.781616	767.467896	-389.347900	598.447083	811.657166	-338.518097	580.647156	494.171844	-484.316345	634.188416	380.976074	-474.418304	609.278442	307.403778	-510.976898	638.367004	257.351013	-518.719666	866.632507	527.440613	-283.716156	823.166565	418.707550	-236.384567	855.286194	354.516724	-260.338715	818.915039	300.760895	-251.808502	852.520569	103.347702	-312.659241	807.513184	53.361671	-363.608215	622.285706	87.309242	-616.801025	654.758301	54.892876	-690.411194	622.610657	45.111290	-516.761414	700.698730	47.256542	-489.879181	867.504822	71.481438	-226.106659	803.366943	78.160301	-169.138474	907.282349	790.270142	-353.408844	0.000000	0.000000	0.000000	0.000000	0.000000	0.000000	
1403	14.020000	705.998657	1239.162720	-497.560822	705.857361	1495.298340	-365.772797	723.350586	1335.385620	-276.267822	551.316345	1439.599731	-331.607788	887.257935	1438.538208	-371.270996	659.179504	1028.223511	-571.884644	747.207397	1026.829468	-570.861633	576.659241	983.405945	-340.895264	830.502380	988.592773	-336.478027	884.420776	747.299072	-309.270477	859.653625	876.635010	-330.951630	586.696350	696.079590	-372.494202	537.688965	766.869873	-391.197235	599.266968	810.660767	-339.952118	581.114441	494.121094	-488.627045	634.579956	380.787872	-479.822327	609.538635	307.523560	-516.993958	638.575378	257.523590	-525.178223	866.639526	527.274658	-283.379883	822.703308	419.520203	-233.148605	855.242126	354.457550	-254.588730	818.852539	300.968567	-244.520035	853.164246	101.150642	-297.987396	808.708740	49.449760	-347.550293	622.070862	88.494217	-624.700928	654.368347	56.763950	-698.705200	622.518616	45.263763	-525.112488	700.534668	47.291058	-498.323822	867.505981	73.056999	-202.854767	802.595703	80.720284	-153.781494	906.412109	787.088806	-351.084137	0.000000	0.000000	0.000000	0.000000	0.000000	0.000000	
1404	14.030000	706.671509	1238.668213	-497.846161	706.609314	1494.838623	-366.146881	724.205872	1334.949097	-276.564819	552.090881	1439.101807	-331.710815	888.000732	1438.092896	-371.941528	660.186890	1027.865723	-572.148560	748.185242	1026.445190	-571.053955	577.411621	982.800720	-341.232025	831.304443	988.182739	-336.600464	887.056641	750.225220	-313.448639	860.411499	876.176941	-330.966980	587.601074	695.409363	-374.963257	538.644958	766.301453	-392.935974	600.128662	809.695313	-341.269043	581.637024	494.117950	-492.784149	635.011597	380.643097	-485.108246	609.831055	307.710266	-522.917053	638.814819	257.767548	-531.561768	866.693420	526.973755	-283.335480	822.258606	420.176239	-230.449692	855.181824	354.349609	-249.511230	818.746033	301.155792	-238.052841	853.669312	99.278267	-284.591003	809.728516	46.065174	-332.857941	621.857605	89.796227	-632.575378	653.985718	58.787201	-706.983887	622.427856	45.439594	-533.435608	700.371887	47.321491	-506.761902	867.347473	74.608864	-181.562668	801.646545	83.232208	-139.900055	905.165649	783.154724	-348.137482	0.000000	0.000000	0.000000	0.000000	0.000000	0.000000	
